<?xml version="1.0" encoding="UTF-8" standalone="no"?>
<svg
   viewBox="0 0 192 192"
   width="192"
   height="192"
   version="1.1"
   xmlns="http://www.w3.org/2000/svg">
  <defs>
    <linearGradient
       id="iconGradient"
       x1="0"
       y1="0"
       x2="1"
       y2="0">
      <stop offset="0%" style="stop-color:#52a441"/>
      <stop offset="100%" style="stop-color:#74fe00"/>
    </linearGradient>
  </defs>
  <g transform="matrix(4.2666667,0,0,4.2666667,-8.6287181,-4.4024074)">
    <rect
       style="fill:#52a441;fill-opacity:1;stroke-width:5.73809"
       width="45"
       height="45"
       x="2.0223558"
       y="1.0318142"
       ry="5.447979" />
    <path
       d="M 6,36 16,14 22,22 32,8 42,36 Z"
       fill="#3d7d31" />
    <!-- Cloud over mountain -->
    <path
       d="M 12,11 Q 12,7 16,7 Q 18,5 21,6 Q 24,5 25,8 Q 28,8 28,11 Q 28,14 25,14 L 14,14 Q 12,14 12,11 Z"
       fill="#ffffff"
       opacity="0.45" />
    <path
       d="m 10,32 q 6,-6 12,-2 6,4 12,-2 4,-4 8,-2"
       stroke="#ffffff"
       stroke-width="3"
       stroke-linecap="round"
       fill="none" />
    <path
       d="m 34,14 4,8 h -6 l 4,10"
       stroke="#74fe00"
       stroke-width="2.5"
       stroke-linecap="round"
       stroke-linejoin="round"
       fill="none" />
  </g>
</svg>
